# xmcd CD database file
#
# Track frame offsets:
#	150
#	21691
#	35627
#	58750
#	70401
#	97017
#	116811
#	131715
#	150000
#	164964
#	178437
#	192123
#	216502
#	234937
#	253753
#	273525
#	292473
#	312485
#	328149
#
# Disc length: 4783 seconds
#
# Revision: 0
# Processed by: cddbd v1.5.2PL0 Copyright (c) Steve Scherf et al.
# Submitted via: CDex 1.51
#
DISCID=4112ad13
DTITLE=John Denver - The Wildlife Concert
DYEAR=1995
DGENRE=Country
TTITLE0=Eagles And Horses
TTITLE1=Country Roads
TTITLE2=Back Home Again
TTITLE3=You Say That The Battle is Over
TTITLE4=A Song For All Lovers
TTITLE5=Rocky Mountain High
TTITLE6=I'm Sorry
TTITLE7=Fly Away
TTITLE8=Two Different Directions
TTITLE9=Shanghai Breezes
TTITLE10=Annie's Song
TTITLE11=Sunshine On My Shoulders
TTITLE12=Wild Montana Skies
TTITLE13=Darcy Farrow
TTITLE14=Poems, Prayers And Promises
TTITLE15=Bet On The Blues
TTITLE16=Falling Out Of Love
TTITLE17=Calypso
TTITLE18=Medley: Leaving On A Jet Plane/Goodbye Again
EXTD=YEAR: 1995
EXTT0=
EXTT1=
EXTT2=
EXTT3=
EXTT4=
EXTT5=
EXTT6=
EXTT7=
EXTT8=
EXTT9=
EXTT10=
EXTT11=
EXTT12=
EXTT13=
EXTT14=
EXTT15=
EXTT16=
EXTT17=
EXTT18=
PLAYORDER=
